HIERARCHY
ROOT Hips
{
	OFFSET 0.000000 0.000000 0.000000
	CHANNELS 6 Xposition Yposition Zposition Zrotation Yrotation Xrotation 
	JOINT LHipJoint
	{
		OFFSET 0.000000 0.000000 0.000000
		CHANNELS 3 Zrotation Yrotation Xrotation
		JOINT LeftUpLeg
		{
			OFFSET 1.363060 -1.794630 0.839290
			CHANNELS 3 Zrotation Yrotation Xrotation
			JOINT LeftLeg
			{
				OFFSET 2.448110 -6.726130 0.000000
				CHANNELS 3 Zrotation Yrotation Xrotation
				JOINT LeftFoot
				{
					OFFSET 2.562200 -7.039590 0.000000
					CHANNELS 3 Zrotation Yrotation Xrotation
					JOINT LeftToeBase
					{
						OFFSET 0.157640 -0.433110 2.322550
						CHANNELS 3 Zrotation Yrotation Xrotation
						End Site
						{
							OFFSET 0.000000 0.000000 0.000000
						}
					}
				}
			}
		}
	}
	JOINT RHipJoint
	{
		OFFSET 0.000000 0.000000 0.000000
		CHANNELS 3 Zrotation Yrotation Xrotation
		JOINT RightUpLeg
		{
			OFFSET -1.305520 -1.794630 0.839290
			CHANNELS 3 Zrotation Yrotation Xrotation
			JOINT RightLeg
			{
				OFFSET -2.542530 -6.985550 0.000000
				CHANNELS 3 Zrotation Yrotation Xrotation
				JOINT RightFoot
				{
					OFFSET -2.568260 -7.056230 0.000000
					CHANNELS 3 Zrotation Yrotation Xrotation
					JOINT RightToeBase
					{
						OFFSET -0.164730 -0.452590 2.363150
						CHANNELS 3 Zrotation Yrotation Xrotation
						End Site
						{
							OFFSET 0.000000 0.000000 0.000000
						}
					}
				}
			}
		}
	}
	JOINT LowerBack
	{
		OFFSET 0.000000 0.000000 0.000000
		CHANNELS 3 Zrotation Yrotation Xrotation
		JOINT Spine
		{
			OFFSET 0.028270 2.035590 -0.193380
			CHANNELS 3 Zrotation Yrotation Xrotation
			JOINT Spine1
			{
				OFFSET 0.056720 2.048850 -0.042750
				CHANNELS 3 Zrotation Yrotation Xrotation
				JOINT Neck
				{
					OFFSET 0.000000 0.000000 0.000000
					CHANNELS 3 Zrotation Yrotation Xrotation
					JOINT Neck1
					{
						OFFSET -0.054170 1.746240 0.172020
						CHANNELS 3 Zrotation Yrotation Xrotation
						JOINT Head
						{
							OFFSET 0.104070 1.761360 -0.123970
							CHANNELS 3 Zrotation Yrotation Xrotation
							End Site
							{
								OFFSET 0.000000 0.000000 0.000000
							}
						}
					}
				}
				JOINT LeftShoulder
				{
					OFFSET 0.000000 0.000000 0.000000
					CHANNELS 3 Zrotation Yrotation Xrotation
					JOINT LeftArm
					{
						OFFSET 3.362410 1.200890 -0.311210
						CHANNELS 3 Zrotation Yrotation Xrotation
						JOINT LeftForeArm
						{
							OFFSET 4.983000 -0.000000 -0.000000
							CHANNELS 3 Zrotation Yrotation Xrotation
							JOINT LeftHand
							{
								OFFSET 3.483560 -0.000000 -0.000000
								CHANNELS 3 Zrotation Yrotation Xrotation
								JOINT LeftFingerBase
								{
									OFFSET 0.000000 0.000000 0.000000
									CHANNELS 3 Zrotation Yrotation Xrotation
									JOINT LeftHandIndex1
									{
										OFFSET 0.715260 -0.000000 -0.000000
										CHANNELS 3 Zrotation Yrotation Xrotation
										End Site
										{
											OFFSET 0.000000 0.000000 0.000000
										}
									}
								}
								JOINT LThumb
								{
									OFFSET 0.000000 0.000000 0.000000
									CHANNELS 3 Zrotation Yrotation Xrotation
									End Site
									{
										OFFSET 0.000000 0.000000 0.000000
									}
								}
							}
						}
					}
				}
				JOINT RightShoulder
				{
					OFFSET 0.000000 0.000000 0.000000
					CHANNELS 3 Zrotation Yrotation Xrotation
					JOINT RightArm
					{
						OFFSET -3.136600 1.374050 -0.404650
						CHANNELS 3 Zrotation Yrotation Xrotation
						JOINT RightForeArm
						{
							OFFSET -5.241900 -0.000000 -0.000000
							CHANNELS 3 Zrotation Yrotation Xrotation
							JOINT RightHand
							{
								OFFSET -3.444170 -0.000000 -0.000000
								CHANNELS 3 Zrotation Yrotation Xrotation
								JOINT RightFingerBase
								{
									OFFSET 0.000000 0.000000 0.000000
									CHANNELS 3 Zrotation Yrotation Xrotation
									JOINT RightHandIndex1
									{
										OFFSET -0.622530 -0.000000 -0.000000
										CHANNELS 3 Zrotation Yrotation Xrotation
										End Site
										{
											OFFSET 0.000000 0.000000 0.000000
										}
									}
								}
								JOINT RThumb
								{
									OFFSET 0.000000 0.000000 0.000000
									CHANNELS 3 Zrotation Yrotation Xrotation
									End Site
									{
										OFFSET 0.000000 0.000000 0.000000
									}
								}
							}
						}
					}
				}
			}
		}
	}
}
MOTION
Frames: 8
Frame Time: 0.016667
-2.835732 17.954340 24.417691 0.770541 22.170206 5.330266 -2.708497 7.513939 -2.123382 -19.825422 -10.622521 -11.924236 -0.445627 -11.297398 -15.893252 6.053767 16.721232 63.059187 0.000000 0.000000 0.000000 29.225224 -2.754575 9.778391 -17.239866 -5.529217 -20.685035 2.727205 -28.932960 43.759350 10.454157 -28.324622 15.538465 0.000000 0.000000 0.000000 -25.006933 -2.209241 -7.519486 13.811753 -9.784275 80.214551 9.338399 4.740927 -58.723122 11.242491 -3.722951 -30.439693 -4.791060 -1.284503 8.485165 0.000000 0.000000 0.000000 -0.711111 14.377742 -5.338404 -81.288161 -17.876392 23.489135 -18.261558 -59.440409 0.403102 -0.196042 2.386414 0.202684 -0.221858 2.383212 0.000000 0.000000 0.000000 0.000000 0.000000 0.000000 0.000000 1.394964 -6.879380 -2.403103 67.327392 14.258393 26.194955 53.254721 54.964749 -0.096400 -0.980432 6.449655 -0.049874 -1.015016 6.453337 0.000000 0.000000 0.000000 0.000000 0.000000 0.000000 0.000000 
-3.045936 18.129126 24.706498 0.562847 23.596908 6.680324 -3.244283 5.922442 -1.878493 -16.854684 -11.437495 -13.730547 -1.270168 -11.146271 -14.714782 6.013764 16.671867 62.595035 0.000000 0.000000 0.000000 33.216046 -1.958519 10.345975 -19.732578 -7.432581 -21.298658 2.747007 -29.371380 41.255384 10.174557 -29.451169 18.065780 0.000000 0.000000 0.000000 -28.606128 -0.805793 -8.643238 16.225702 -10.898822 83.499654 13.015175 5.553349 -61.053658 14.445650 -4.213010 -32.076464 -5.915165 -1.522519 8.601154 0.000000 0.000000 0.000000 -0.352865 15.032150 -6.266890 -83.108755 -17.428812 25.380617 -17.789468 -60.295471 0.442987 -0.311138 2.380798 0.222815 -0.340149 2.376468 0.000000 0.000000 0.000000 0.000000 0.000000 0.000000 0.000000 0.904669 -6.280604 -2.552343 68.090826 15.479963 25.164047 53.207331 53.350468 -0.108019 -1.096969 6.397651 -0.055682 -1.132418 6.401173 0.000000 0.000000 0.000000 0.000000 0.000000 0.000000 0.000000 
-3.234678 18.296502 24.983384 0.481670 24.649495 8.027496 -3.646356 4.596208 -1.890411 -14.375102 -11.871956 -15.146431 -2.012491 -10.860186 -13.715933 5.988249 16.750857 62.277528 0.000000 0.000000 0.000000 36.398160 -1.375945 10.614922 -21.410298 -8.842818 -21.661252 2.482487 -29.480203 38.830065 9.772335 -30.447522 20.619526 0.000000 0.000000 0.000000 -31.425668 1.014745 -9.655645 17.849443 -11.299869 85.944580 17.093419 6.443530 -62.867760 17.645283 -4.550976 -33.358818 -6.915503 -1.733494 8.575940 0.000000 0.000000 0.000000 -0.075170 15.293742 -7.175810 -84.533440 -17.143039 27.070751 -17.572822 -60.792887 0.470433 -0.354490 2.346854 0.236699 -0.385975 2.341526 0.000000 0.000000 0.000000 0.000000 0.000000 0.000000 0.000000 0.700587 -5.774289 -2.635470 68.660191 16.701967 23.960755 52.857195 51.753083 -0.116396 -1.198289 6.326480 -0.059835 -1.233942 6.329781 0.000000 0.000000 0.000000 0.000000 0.000000 0.000000 0.000000 
-3.396991 18.424980 25.239746 0.556833 25.465974 9.258941 -3.513094 3.641881 -2.202694 -13.108107 -12.121538 -15.904743 -2.464845 -10.594848 -12.896827 5.935856 16.743284 61.997877 0.000000 0.000000 0.000000 38.636812 -0.737414 10.522793 -22.502862 -9.915996 -21.713385 2.210905 -29.583131 37.041088 9.488126 -31.623206 23.021727 0.000000 0.000000 0.000000 -33.608276 2.840476 -10.250111 18.635861 -10.904090 86.935608 20.441695 7.082016 -63.971707 18.528846 -4.189287 -33.977351 -6.521281 -1.666887 8.741836 0.000000 0.000000 0.000000 1.075724 14.472050 -7.669689 -86.027775 -17.076589 28.284175 -17.484828 -60.766151 0.483798 -0.333208 2.306446 0.243496 -0.366255 2.300425 0.000000 0.000000 0.000000 0.000000 0.000000 0.000000 0.000000 1.254722 -5.838425 -2.654472 68.942570 17.406094 22.788078 52.075554 50.663507 -0.118920 -1.269946 6.217540 -0.061019 -1.304789 6.220555 0.000000 0.000000 0.000000 0.000000 0.000000 0.000000 0.000000 
-3.531226 18.512623 25.475170 0.663536 26.003579 10.276059 -2.824545 3.120629 -2.637711 -12.889910 -12.324289 -16.188245 -2.694372 -10.391425 -12.227033 5.865937 16.624081 61.694888 0.000000 0.000000 0.000000 40.207780 -0.004099 10.276836 -23.274536 -10.748264 -21.567445 1.980977 -29.738990 35.946302 9.335062 -32.899092 25.147598 0.000000 0.000000 0.000000 -35.596853 4.077368 -10.513585 19.504964 -10.637181 86.302721 22.785522 7.273418 -64.050642 18.867357 -3.686564 -34.068604 -5.977690 -1.532273 9.038601 0.000000 0.000000 0.000000 1.963428 13.251454 -7.880358 -87.108037 -17.079795 28.951807 -17.567773 -60.380829 0.484156 -0.267718 2.260661 0.243731 -0.301339 2.254328 0.000000 0.000000 0.000000 0.000000 0.000000 0.000000 0.000000 1.809133 -5.888433 -2.429648 69.145412 17.810249 21.613040 50.732208 49.794509 -0.117276 -1.331685 6.054105 -0.060078 -1.364763 6.056725 0.000000 0.000000 0.000000 0.000000 0.000000 0.000000 0.000000 
-3.635079 18.584362 25.685961 0.702967 26.225710 11.100554 -2.163357 2.812249 -3.002096 -12.824772 -12.433194 -16.348421 -2.767218 -10.205732 -11.718332 5.788434 16.516397 61.390592 0.000000 0.000000 0.000000 41.296813 0.628033 10.044650 -23.702633 -11.308986 -21.361901 1.783805 -29.764001 35.099926 9.153696 -34.009109 27.013249 0.000000 0.000000 0.000000 -37.172892 4.853416 -10.607977 20.343944 -10.485088 84.980859 24.174571 7.172209 -63.833982 18.852468 -3.169372 -33.846387 -5.382920 -1.374431 9.434484 0.000000 0.000000 0.000000 2.376219 11.960271 -8.012383 -87.770906 -17.125286 29.518370 -17.596683 -60.024078 0.478130 -0.186362 2.248186 0.240760 -0.220230 2.241686 0.000000 0.000000 0.000000 0.000000 0.000000 0.000000 0.000000 2.395219 -5.932534 -2.133617 69.236998 17.976920 20.627847 49.062906 49.230029 -0.112219 -1.396692 5.847253 -0.057415 -1.427487 5.849412 0.000000 0.000000 0.000000 0.000000 0.000000 0.000000 0.000000 
-3.706899 18.638905 25.871343 0.674561 26.190396 11.674671 -1.524151 2.719605 -3.256559 -12.954557 -12.466879 -16.351389 -2.683583 -10.057254 -11.361422 5.690373 16.401835 61.069163 0.000000 0.000000 0.000000 41.941983 1.122689 9.880886 -23.843838 -11.651105 -21.113205 1.662201 -29.680757 34.509916 8.973910 -34.962647 28.597723 0.000000 0.000000 0.000000 -38.401679 5.030389 -10.474890 21.303295 -10.594617 82.975043 24.423203 6.762128 -63.327563 18.473233 -2.659657 -33.327270 -4.750940 -1.202874 9.963742 0.000000 0.000000 0.000000 2.210545 10.702448 -8.052181 -87.987516 -17.157166 30.007599 -17.572761 -59.708895 0.466875 -0.102689 2.267709 0.235162 -0.136499 2.261170 0.000000 0.000000 0.000000 0.000000 0.000000 0.000000 0.000000 2.995820 -5.966393 -1.750413 69.203538 17.892253 19.819653 47.091139 48.916184 -0.104151 -1.463473 5.594873 -0.053234 -1.491530 5.596528 0.000000 0.000000 0.000000 0.000000 0.000000 0.000000 0.000000 
-3.748618 18.699144 26.034647 0.555210 25.984507 12.076617 -1.231628 2.639616 -3.394732 -12.806083 -12.392179 -16.382258 -2.498817 -9.856862 -11.037086 5.569059 16.352183 60.751835 0.000000 0.000000 0.000000 42.184963 1.318398 9.783382 -23.645212 -11.789435 -20.919171 1.740874 -29.345869 33.871689 8.678162 -35.752598 30.111492 0.000000 0.000000 0.000000 -39.040150 5.140313 -10.349910 22.114535 -10.698872 81.448601 24.234961 6.357380 -63.272133 18.064895 -2.248666 -32.910301 -4.222895 -1.064627 10.492535 0.000000 0.000000 0.000000 1.675745 9.730063 -8.235017 -88.050362 -17.327642 30.557836 -17.486897 -59.407340 0.450254 -0.029461 2.323638 0.226868 -0.062841 2.317119 0.000000 0.000000 0.000000 0.000000 0.000000 0.000000 0.000000 3.578589 -6.090468 -1.415403 69.042547 17.796832 18.909671 45.775249 48.089223 -0.102281 -1.514015 5.433314 -0.052205 -1.540413 5.434642 0.000000 0.000000 0.000000 0.000000 0.000000 0.000000 0.000000 
